# xmcd
#
# Track frame offsets: 
#        183
#        23720
#        40495
#        70835
#        100225
#        118760
#        140825
#        158385
#        183290
#
# Disc length: 2668 seconds
#
# Revision: 0
# Processed by: cddbd v1.5PL3 Copyright (c) Steve Scherf et al.
# Submitted via: ExactAudioCopy v0.90b4
#
DISCID=750a6a09
DTITLE=Mojo Buford - State of Harp
DYEAR=1900
DGENRE=
TTITLE0=Picking Rags
TTITLE1=Groundhog Blues
TTITLE2=Mo's Stroll
TTITLE3=Jealous of My Baby
TTITLE4=I'm Bluesman
TTITLE5=I Wanna Know
TTITLE6=Jack Potato Boogie
TTITLE7=Come Home Baby
TTITLE8=Big Leg Woman
EXTD=
EXTT0=
EXTT1=
EXTT2=
EXTT3=
EXTT4=
EXTT5=
EXTT6=
EXTT7=
EXTT8=
PLAYORDER=
